<?xml version="1.0" encoding="utf-8"?>
<!-- Generator: Adobe Illustrator 16.0.0, SVG Export Plug-In . SVG Version: 6.00 Build 0)  -->
<!DOCTYPE svg PUBLIC "-//W3C//DTD SVG 1.1//EN" "http://www.w3.org/Graphics/SVG/1.1/DTD/svg11.dtd">
<svg version="1.1" id="Layer_1" xmlns="http://www.w3.org/2000/svg" xmlns:xlink="http://www.w3.org/1999/xlink" x="0px" y="0px"
	 width="334px" height="163px" viewBox="0 0 334 163" enable-background="new 0 0 334 163" xml:space="preserve">
<g>
	<g>
		<g>
			<linearGradient id="SVGID_1_" gradientUnits="userSpaceOnUse" x1="159.5605" y1="32.375" x2="195.9002" y2="32.375">
				<stop  offset="0" style="stop-color:#FDE55F"/>
				<stop  offset="0.22" style="stop-color:#F19A46"/>
				<stop  offset="0.34" style="stop-color:#F7C053"/>
				<stop  offset="0.5" style="stop-color:#FDE55F"/>
				<stop  offset="0.76" style="stop-color:#EA8923"/>
				<stop  offset="1" style="stop-color:#FDE55F"/>
			</linearGradient>
			<path fill-rule="evenodd" clip-rule="evenodd" fill="url(#SVGID_1_)" d="M186.58,38.741c4.281-4.961-2.386-9.647-2.386-9.647
				s0.884,6.333-1.982,7.906c-1.682,0.933-4.785,2.661-5.757,5.114h-4.005c0,0-4.548-4.511-6.016-5.98
				c-3.221-3.223-3.173-5.335-2.814-7.243c0.854-4.521-0.61-7.176-0.61-7.176s-2.653,5.154-3.35,7.176
				c-1.357,3.918,1.201,10.207,7.88,13.224h-8.229v0.921h28.7v-0.921h-5.933C183.46,41.45,185.663,39.806,186.58,38.741z"/>
			<linearGradient id="SVGID_2_" gradientUnits="userSpaceOnUse" x1="165.1074" y1="24.3745" x2="187.1556" y2="24.3745">
				<stop  offset="0" style="stop-color:#FDE55F"/>
				<stop  offset="0.22" style="stop-color:#F19A46"/>
				<stop  offset="0.34" style="stop-color:#F7C053"/>
				<stop  offset="0.5" style="stop-color:#FDE55F"/>
				<stop  offset="0.76" style="stop-color:#EA8923"/>
				<stop  offset="1" style="stop-color:#FDE55F"/>
			</linearGradient>
			<path fill-rule="evenodd" clip-rule="evenodd" fill="url(#SVGID_2_)" d="M170.212,33.866c0.756,2.93,1.146,3.18,1.146,3.18
				c0.34-1.805,2.939-6.029,3.541-8.176c0.571-2.031,1.308-1.293,1.308-1.293c3.113,5.803-0.572,10.862-0.572,10.862
				c6.176-2.609,6.587-5.408,6.721-8.021c0.38-7.559-6.334-10.407-9.95-11.719c-4.169-1.512-4.019-3.612-3.613-5.129
				c0.678-2.552,0.269-3.261,0.269-3.261c-8.37,8.117-1.659,13.765,0.213,17.803C170.139,29.984,169.892,32.609,170.212,33.866z"/>
		</g>
		<g>
			<path fill-rule="evenodd" clip-rule="evenodd" d="M98.441,99.983c-0.763,0.576-1.564,1.097-2.295,1.702
				c-1.356,1.126-1.96,0.713-2.4-0.889c-2.008-7.269-1.928-14.573-0.618-21.931c0.613-3.441,2.265-6.7,1.821-10.332
				c-0.08-0.69-0.039-1.312-0.765-1.739c-2.243-1.323-4.117-3.098-5.869-5.03c-0.621,0.822-1.136,1.622-1.769,2.322
				c-0.636,0.7-1.289,1.479-2.107,1.904c-1.581,0.831-1.823,2.072-1.726,3.666c0.085,1.488-0.15,2.945,1.419,3.956
				c0.716,0.467,1.642,1.059,1.437,2.26c-0.99,5.801-0.798,11.65-0.802,17.493c0,0.739,0.055,1.439-0.375,2.148
				c-1.847,3.044-3.979,5.845-6.499,8.361c-0.835,0.836-1.709,1.02-2.763,0.725c-2.949-0.811-5.728-2.076-8.572-3.174
				c-0.925-0.36-0.789-0.718-0.304-1.311c2.713-3.305,3.96-7.147,4.36-11.366c0.563-6.017,0.382-11.948-1.873-17.618
				c-2.377-5.989-7.237-9.436-12.798-9.457c-1.05,0-1.751,0.344-2.458,1.117c-2.888,3.154-4.774,6.612-3.666,11.285
				c0.425-0.131,0.875-0.281,1.323-0.407c4.538-1.244,7.835,0.09,10.104,4.233c2.024,3.682,2.737,7.579,1.658,11.735
				c-1.108,4.257-2.633,8.185-7.152,9.982c-0.486,0.194-0.622,0.673-0.867,1.072c-0.739,1.217-1.569,2.376-2.29,3.599
				c-0.999,1.695-0.369,3.558-0.404,5.342c-0.007,0.359,0.532,0.317,0.864,0.312c3.778-0.08,7.154,1.393,10.542,2.767
				c3.454,1.4,6.86,2.896,10.566,3.594c1.391,0.266,2.26-0.067,3.196-1.086c3.241-3.53,5.703-7.578,8.036-11.76
				c0.46,0.516,0.515,1.044,0.616,1.586c0.708,3.948,2.255,7.492,4.958,10.518c0.815,0.918,1.231,0.892,1.882-0.135
				c1.771-2.76,3.648-5.537,6.167-7.578c2.419-1.966,2.168-4.328,2.046-6.787C100.97,99.314,99.843,98.922,98.441,99.983z"/>
			<path fill-rule="evenodd" clip-rule="evenodd" d="M186.94,74.563c-0.888-0.655-1.486-0.651-2.22,0.151
				c-1.347,1.492-2.752,2.939-4.451,4.739c0.729-5.886,1.41-11.379,2.089-16.872c0.097-0.749,0.64-1.135,1.281-1.04
				c2.369,0.361,2.212-1.164,2.16-2.705c-0.048-1.293-0.048-2.59,0-3.882c0.022-0.832-0.202-1.229-1.131-1.227
				c-7.359,0.024-14.718,0.018-22.078,0.005c-1.01,0-1.433,0.353-1.371,1.447c0.099,1.697,0.037,3.406,0.022,5.108
				c0,0.648,0.024,1.11,0.891,1.28c3.057,0.584,3.356,1.053,3.682,4.183c1.146,11,2.424,21.991,3.464,33.003
				c0.357,3.835,0.729,7.831-2.093,11.147c-0.168,0.199-0.318,0.474-0.341,0.727c-0.131,1.364,5.399,5.583,6.634,4.993
				c2.024-0.975,3.925-2.172,5.535-3.766c0.498-0.492,1.036-1.174,0.524-1.792c-1.056-1.273-0.622-2.718-0.73-4.102
				c-0.054-0.595,0.275-1.333-0.292-1.736c-1.182-0.838-1.013-1.962-0.877-3.119c0.171-1.482,0.384-2.963,0.485-4.453
				c0.261-3.6,0.905-6.941,4.233-9.178c1.185-0.795,1.889-1.015,2.836,0.206c1.225,1.582,2.067,3.298,2.67,5.203
				c1.194,3.81,0.804,7.652,0.357,11.486c-0.56,4.784-1.355,9.582-4.045,13.667c-1.591,2.419-1.344,4.818-1.238,7.181
				c3.994,0.569,5.892-1.809,7.283-4.909c0.275-0.618,0.608-1.213,0.881-1.829c4.268-9.736,4.621-19.94,3.743-30.324
				C194.35,82.333,191.554,77.963,186.94,74.563z"/>
			<path fill-rule="evenodd" clip-rule="evenodd" d="M162.154,85.014c1.144-0.126,1.5-1.034,1.964-1.863
				c1.368-2.448,1.716-5.085,1.6-7.856c-0.057-1.286-0.383-1.435-1.587-1.072c-3.957,1.201-8.215,1.893-12.085,0.751
				c-4.592-1.363-7.611-0.154-10.607,3.169c-3.071,3.409-6.238,6.661-6.999,11.424c-0.439,2.705-0.366,5.464-0.127,8.153
				c0.585,6.624,3.335,12.202,8.657,16.405c1.445,1.146,2.398,1.083,3.679-0.33c2.758-3.037,4.907-6.474,7.072-10.141
				c1.027,3.413,2.132,6.586,2.888,9.84c0.382,1.662-1.243,2.573-2.323,3.535c-0.775,0.689-1.474,1.431-2.839,0.801
				c-3.399-1.552-7.045-1.872-10.764-1.722c-3.882,0.157-6.598,1.708-8.117,5.486c-0.923,2.283-0.612,4.514-0.698,6.788
				c0.796,0.121,1.414-0.183,2.067-0.366c3.158-0.887,6.591-1.976,9.587-0.755c4.723,1.924,7.754-0.177,11.11-2.854
				c3.082-2.449,6.496-4.476,9.195-7.403c0.45-0.499,1.016-0.943,1.004-1.705c-0.04-2.151,0.279-4.32-0.834-6.377
				c-0.766-1.414-1.354-2.955-1.828-4.496c-1.835-5.929-3.249-11.891-0.986-18.059C161.397,85.791,161.352,85.102,162.154,85.014z
				 M153.207,87.26c-0.258,1.586-0.295,3.267-0.104,4.87c0.579,4.963-3.474,6.947-6.129,9.837c-0.475,0.521-0.85,0.036-1.171-0.31
				c-2.884-3.122-4.653-6.755-5.047-10.825c0.103-2.541,1.184-4.461,2.473-6.315c0.498-0.718,0.985-0.448,1.551-0.219
				c2.332,0.968,4.747,1.585,7.293,1.528C153.116,85.805,153.4,86.096,153.207,87.26z"/>
			<path fill-rule="evenodd" clip-rule="evenodd" d="M132.604,89.246c-0.009-5.165-1.981-9.451-5.852-12.913
				c-2.844-2.542-6.259-4.018-9.654-5.577c-2.772-1.273-5.462-2.666-7.56-5.253c6.049-2.615,11.798-2.435,17.356,0.704
				c1.114,0.628,1.723,0.491,2.626-0.212c2.724-2.136,3.689-4.884,3.303-8.271c-0.109-0.923-0.331-1.428-1.194-1.849
				c-2.381-1.148-4.9-1.511-7.494-1.682c-7.628-0.501-13.907,1.936-18.84,7.975c-2.536,3.112-2.462,6.458-1.817,9.964
				c0.766,4.163,3.853,6.365,7.452,8.146c-1.038,0.977-2.04,1.889-3.011,2.83c-2.718,2.648-4.129,5.806-3.947,9.657
				c0.099,2.107,0.012,4.225,0.018,6.337c0.005,7.267,5.939,14.895,12.963,16.725c0.655,0.173,1.047,0.2,1.602-0.32
				c2.138-1.999,4.333-3.932,6.546-5.841c3.867-3.33,6.723-7.219,7.35-12.47C132.768,94.543,132.612,91.893,132.604,89.246z
				 M121.441,104.874c-0.501,0.57-0.917,0.377-1.398,0.1c-3.93-2.234-7.091-5.212-8.999-9.391c-0.775-1.7-0.739-3.402,0.011-5.107
				c1.207-2.729,3.04-4.95,5.377-6.784c0.421-0.326,0.74-0.599,1.399-0.364c4.288,1.543,8.238,6.853,8.244,11.951
				C125.835,98.57,124.039,101.894,121.441,104.874z"/>
			<path fill-rule="evenodd" clip-rule="evenodd" d="M277.753,75.991c-2.947-2.321-2.043-2.898-5.202,0.324
				c-2.496,2.539-4.438,5.53-6.601,8.946c0-5.15-0.128-9.775,0.05-14.383c0.104-2.735,1.069-5.305,2.924-7.431
				c0.434-0.492,0.801-1.104,1.656-0.954c3.001,0.518,5.84,1.355,7.828,3.886c1.582,2.016,1.715,2.065,3.599,0.291
				c0.688-0.646,1.334-1.373,1.844-2.163c1.277-1.964,0.56-6.5-1.159-7.775c-3.933-2.93-10.268-3.175-14.356-0.525
				c-3.244,2.103-5.817,4.886-8.139,7.95c-0.865,1.145-1.234,2.302-1.229,3.749c0.046,10.767,0.017,21.536,0.031,32.307
				c0.004,3.189-1.246,6.26-0.844,9.489c0.09,0.734,0,1.401,0.722,1.968c1.454,1.134,2.462,2.655,3.289,4.615
				c1.679-2.367,3.459-4.406,5.508-6.184c0.37-0.324,0.384-0.691,0.366-1.091c-0.071-2.173,0.622-4.547-1.664-6.126
				c-0.193-0.137-0.399-0.446-0.389-0.668c0.176-4.015-1.193-8.363,2.671-11.562c1.544-1.278,2.83-4.093,4.497-3.684
				c2.204,0.538,3.144,3.326,3.849,5.648c1.209,3.996,0.887,8.026,0.422,12.092c-0.61,5.297-1.739,10.397-4.804,14.891
				c-1.147,1.687-0.348,3.575-0.559,5.357c-0.03,0.291,0.137,0.443,0.461,0.535c0.989,0.283,4.45-0.969,5.076-1.909
				c2.39-3.582,3.978-7.506,5.137-11.647c2.01-7.19,1.711-14.54,1.574-21.859C284.208,84.494,282.28,79.567,277.753,75.991z"/>
			<path fill-rule="evenodd" clip-rule="evenodd" d="M247.818,85.648c3.705-1.907,5.229-6.059,4.392-11.563
				c-3.106,1.506-6.477,2.514-9.621,1.016c-3.111-1.491-5.021-0.183-7.155,1.596c-2.06,1.724-3.715,3.775-5.259,5.941
				c-0.491,0.693-0.622,1.458-0.634,2.307c-0.081,4.925,0.073,9.774,4.32,13.532c-4.872,0.076-7.177,4.454-6.166,11.028
				c5.974-1.428,9.254,2.009,11.865,6.698c1.898-1.59,3.864-2.881,6.037-3.897c1.896-0.889,3.672-2.041,5.504-3.075
				c0.73-0.414,1.205-1.002,1.537-1.807c1.982-4.824,1.688-9.85,1.197-14.843C253.492,89.088,251.219,86.881,247.818,85.648z
				 M235.847,85.572c-0.178-0.471-0.318-0.98-0.036-1.354c0.437-0.566,0.824,0.013,1.197,0.227c1.84,1.064,3.811,1.724,6.163,1.851
				C240.483,89.154,237.039,88.7,235.847,85.572z M246.486,103.174c-0.699,1.188-1.579,2.205-2.839,3.095
				c-1.874-2.914-3.998-5.408-7.265-6.878c2.865,0.805,4.441-1.044,6.058-2.742c0.624-0.663,1.143-0.693,1.949-0.293
				C247.359,97.814,248.156,100.332,246.486,103.174z"/>
			<path fill-rule="evenodd" clip-rule="evenodd" d="M213.57,74.316c-0.722-0.221-1.225-0.303-1.792,0.322
				c-1.653,1.824-3.713,3.178-5.612,4.713c-5.336,4.321-8.97,9.458-8.11,16.771c0,0.61,0.023,1.223-0.002,1.836
				c-0.416,8.459,6.104,15.736,12.888,17.824c1.026,0.316,1.674,0.308,2.506-0.495c1.457-1.411,3.043-2.708,4.686-3.909
				c6.555-4.797,9.536-11.099,8.999-19.308C226.607,83.932,221.317,76.72,213.57,74.316z M215.872,105.328
				c-0.438,0.361-0.874,0.165-1.322-0.054c-4.803-2.336-8.277-5.87-9.817-11.063c-0.824-2.797,1.732-8.12,4.277-9.299
				c0.365-0.171,0.628-0.114,0.934,0.028c5.341,2.457,9.071,6.314,10.555,12.124c0.038,0.132,0.038,0.272,0.055,0.456
				C219.889,100.625,218.391,103.282,215.872,105.328z"/>
			<path fill-rule="evenodd" clip-rule="evenodd" d="M166.371,52.209c4.762-0.054,9.523-0.014,14.288-0.033
				c0.823-0.002,1.619-0.104,2.116-0.933c1.67-2.779,3.368-5.55,5.051-8.32c-3.951-0.039-7.899-0.075-11.85-0.109
				c-3.564-0.003-7.13-0.006-10.697-0.009c-1.992,0.054-3.983,0.102-5.969,0.152c1.655,2.645,3.309,5.292,4.972,7.936
				C164.763,51.662,165.296,52.223,166.371,52.209z"/>
		</g>
	</g>
	<g>
		<path fill="#565656" d="M87.351,149.443v-8.94l-4.077,6.975h-0.466l-4.077-6.975v8.94h-0.743v-10.338h0.743l4.31,7.396l4.31-7.396
			h0.743v10.338H87.351z"/>
		<path fill="#565656" d="M92.374,149.589c-0.35,0-0.675-0.061-0.976-0.182s-0.565-0.286-0.793-0.495s-0.405-0.456-0.532-0.743
			c-0.126-0.286-0.189-0.594-0.189-0.924s0.078-0.632,0.233-0.903s0.371-0.507,0.648-0.706s0.609-0.354,0.998-0.466
			c0.388-0.111,0.815-0.168,1.281-0.168c0.408,0,0.818,0.037,1.23,0.109c0.413,0.073,0.784,0.173,1.114,0.299v-0.743
			c0-0.718-0.204-1.288-0.611-1.711c-0.408-0.422-0.961-0.633-1.66-0.633c-0.369,0-0.76,0.077-1.172,0.232s-0.833,0.379-1.259,0.67
			l-0.277-0.495c0.971-0.66,1.893-0.99,2.767-0.99c0.913,0,1.631,0.265,2.155,0.794c0.524,0.529,0.786,1.26,0.786,2.191v3.698
			c0,0.243,0.107,0.364,0.32,0.364v0.655c-0.049,0.01-0.1,0.017-0.153,0.021s-0.1,0.008-0.138,0.008
			c-0.194,0-0.35-0.065-0.466-0.196c-0.117-0.132-0.185-0.289-0.204-0.474v-0.626c-0.35,0.456-0.796,0.806-1.34,1.048
			C93.592,149.468,93.005,149.589,92.374,149.589z M92.52,149.007c0.563,0,1.08-0.107,1.551-0.32
			c0.471-0.214,0.833-0.495,1.085-0.845c0.155-0.204,0.233-0.398,0.233-0.583v-1.339c-0.35-0.136-0.713-0.238-1.092-0.306
			c-0.379-0.068-0.772-0.103-1.18-0.103c-0.378,0-0.723,0.042-1.034,0.124c-0.311,0.082-0.578,0.196-0.801,0.342
			c-0.224,0.146-0.396,0.323-0.517,0.532c-0.122,0.208-0.182,0.438-0.182,0.691c0,0.252,0.048,0.49,0.146,0.713
			c0.097,0.224,0.233,0.415,0.408,0.575s0.381,0.287,0.619,0.379C91.993,148.961,92.248,149.007,92.52,149.007z"/>
		<path fill="#565656" d="M103.805,149.443l-2.956-4.048l-1.791,1.646v2.402H98.33v-10.63h0.728v7.427l4.602-4.354h0.844
			l-3.16,3.073l3.262,4.484H103.805z"/>
		<path fill="#565656" d="M105.93,140.153v-1.34h0.728v1.34H105.93z M105.93,149.443v-7.571h0.728v7.571H105.93z"/>
		<path fill="#565656" d="M115.133,149.443h-0.728v-4.223c0-0.98-0.138-1.694-0.415-2.141s-0.716-0.67-1.318-0.67
			c-0.32,0-0.638,0.059-0.954,0.175s-0.609,0.282-0.881,0.495c-0.272,0.214-0.51,0.464-0.713,0.75
			c-0.204,0.286-0.354,0.595-0.452,0.925v4.688h-0.728v-7.571h0.685v1.805c0.155-0.291,0.347-0.555,0.575-0.793
			c0.228-0.238,0.485-0.441,0.771-0.611c0.286-0.17,0.59-0.301,0.91-0.394c0.32-0.092,0.65-0.139,0.99-0.139
			c0.825,0,1.407,0.289,1.747,0.867c0.34,0.577,0.51,1.404,0.51,2.482V149.443z"/>
		<path fill="#565656" d="M120.389,149.56c-0.524,0-1.004-0.109-1.441-0.327c-0.437-0.219-0.813-0.51-1.128-0.874
			s-0.563-0.779-0.743-1.245s-0.27-0.946-0.27-1.441c0-0.515,0.085-1.01,0.255-1.485s0.41-0.896,0.721-1.259
			c0.311-0.364,0.682-0.653,1.114-0.867c0.432-0.213,0.91-0.32,1.434-0.32c0.66,0,1.235,0.173,1.726,0.518s0.905,0.764,1.245,1.259
			v-1.645h0.669v7.717c0,0.515-0.097,0.966-0.291,1.354c-0.194,0.388-0.454,0.711-0.779,0.968c-0.326,0.258-0.704,0.452-1.136,0.583
			c-0.432,0.131-0.886,0.196-1.362,0.196c-0.437,0-0.83-0.041-1.179-0.124c-0.35-0.082-0.658-0.199-0.925-0.35
			s-0.505-0.334-0.713-0.553c-0.209-0.219-0.391-0.459-0.546-0.721l0.495-0.335c0.301,0.515,0.708,0.891,1.223,1.128
			c0.514,0.238,1.063,0.357,1.645,0.357c0.388,0,0.755-0.054,1.1-0.16c0.344-0.107,0.646-0.265,0.903-0.474
			c0.257-0.209,0.461-0.469,0.611-0.779s0.226-0.675,0.226-1.092v-1.66c-0.311,0.495-0.723,0.891-1.237,1.188
			C121.491,149.412,120.952,149.56,120.389,149.56z M120.563,148.934c0.32,0,0.634-0.061,0.939-0.182s0.583-0.279,0.83-0.474
			s0.451-0.412,0.611-0.655c0.16-0.242,0.26-0.485,0.298-0.728v-2.49c-0.116-0.291-0.271-0.561-0.466-0.809
			c-0.194-0.247-0.415-0.458-0.663-0.633s-0.515-0.313-0.801-0.415c-0.287-0.103-0.575-0.153-0.866-0.153
			c-0.457,0-0.864,0.098-1.223,0.292c-0.359,0.193-0.663,0.446-0.91,0.757s-0.437,0.662-0.568,1.056
			c-0.131,0.393-0.197,0.789-0.197,1.187c0,0.437,0.078,0.85,0.233,1.237c0.155,0.389,0.369,0.733,0.641,1.034
			c0.271,0.301,0.592,0.539,0.961,0.714C119.753,148.847,120.146,148.934,120.563,148.934z"/>
		<path fill="#565656" d="M136.216,140.823c-0.669-0.747-1.616-1.121-2.839-1.121c-1.01,0-1.745,0.191-2.206,0.575
			s-0.691,0.9-0.691,1.551c0,0.33,0.058,0.604,0.175,0.822c0.116,0.219,0.298,0.405,0.546,0.561s0.561,0.287,0.939,0.394
			c0.378,0.106,0.834,0.219,1.369,0.335c0.553,0.116,1.056,0.245,1.507,0.386c0.452,0.141,0.835,0.318,1.15,0.531
			c0.315,0.214,0.558,0.476,0.728,0.786c0.17,0.312,0.255,0.694,0.255,1.15c0,0.457-0.09,0.854-0.27,1.194s-0.432,0.624-0.757,0.852
			c-0.326,0.229-0.714,0.4-1.165,0.518c-0.452,0.116-0.954,0.174-1.507,0.174c-1.611,0-2.975-0.514-4.091-1.543l0.393-0.597
			c0.437,0.456,0.971,0.817,1.602,1.084c0.631,0.268,1.34,0.4,2.126,0.4c0.903,0,1.609-0.164,2.119-0.494s0.765-0.83,0.765-1.5
			c0-0.34-0.068-0.629-0.204-0.866c-0.136-0.238-0.337-0.444-0.604-0.619c-0.267-0.175-0.604-0.325-1.012-0.451
			s-0.883-0.248-1.427-0.364c-0.554-0.116-1.042-0.24-1.463-0.371c-0.422-0.132-0.777-0.296-1.063-0.495
			c-0.287-0.199-0.502-0.439-0.648-0.721c-0.146-0.282-0.219-0.636-0.219-1.063c0-0.466,0.09-0.878,0.27-1.237s0.43-0.663,0.75-0.91
			c0.32-0.248,0.704-0.435,1.15-0.561c0.446-0.126,0.941-0.189,1.485-0.189c0.67,0,1.267,0.1,1.791,0.299
			c0.524,0.199,1,0.502,1.427,0.91L136.216,140.823z"/>
		<path fill="#565656" d="M142.012,149.589c-0.534,0-1.029-0.104-1.485-0.313c-0.457-0.209-0.852-0.495-1.187-0.859
			s-0.597-0.784-0.786-1.26s-0.284-0.985-0.284-1.529c0-0.533,0.095-1.036,0.284-1.507s0.449-0.883,0.779-1.237
			s0.721-0.634,1.172-0.838c0.451-0.203,0.939-0.306,1.463-0.306c0.534,0,1.029,0.104,1.485,0.313
			c0.456,0.209,0.849,0.49,1.179,0.845s0.587,0.767,0.772,1.237c0.184,0.471,0.276,0.969,0.276,1.492c0,0.049,0,0.109,0,0.183
			c0,0.072-0.005,0.119-0.014,0.138h-6.64c0.029,0.438,0.131,0.843,0.306,1.217c0.175,0.373,0.396,0.696,0.663,0.968
			s0.575,0.485,0.925,0.641s0.723,0.233,1.121,0.233c0.262,0,0.519-0.037,0.772-0.109c0.252-0.073,0.488-0.173,0.706-0.299
			s0.413-0.278,0.583-0.458c0.169-0.18,0.303-0.377,0.4-0.59l0.641,0.175c-0.107,0.271-0.265,0.521-0.473,0.749
			c-0.209,0.229-0.452,0.425-0.728,0.59c-0.277,0.165-0.58,0.294-0.91,0.386C142.701,149.543,142.361,149.589,142.012,149.589z
			 M144.982,145.366c-0.029-0.446-0.129-0.854-0.298-1.223c-0.17-0.369-0.389-0.688-0.655-0.954
			c-0.267-0.267-0.575-0.476-0.925-0.626s-0.723-0.226-1.121-0.226c-0.398,0-0.772,0.075-1.121,0.226
			c-0.35,0.15-0.658,0.359-0.925,0.626s-0.48,0.587-0.641,0.961s-0.255,0.779-0.284,1.216H144.982z"/>
		<path fill="#565656" d="M153.471,149.443h-0.728v-4.223c0-0.98-0.138-1.694-0.415-2.141s-0.716-0.67-1.318-0.67
			c-0.32,0-0.638,0.059-0.954,0.175s-0.609,0.282-0.881,0.495c-0.272,0.214-0.51,0.464-0.713,0.75
			c-0.204,0.286-0.354,0.595-0.452,0.925v4.688h-0.728v-7.571h0.685v1.805c0.155-0.291,0.347-0.555,0.575-0.793
			c0.228-0.238,0.485-0.441,0.771-0.611c0.286-0.17,0.59-0.301,0.91-0.394c0.32-0.092,0.65-0.139,0.99-0.139
			c0.825,0,1.407,0.289,1.747,0.867c0.34,0.577,0.51,1.404,0.51,2.482V149.443z"/>
		<path fill="#565656" d="M158.073,149.589c-0.583,0-1.141-0.097-1.675-0.291c-0.534-0.194-1-0.485-1.398-0.874l0.364-0.495
			c0.408,0.369,0.83,0.641,1.267,0.815c0.437,0.175,0.917,0.263,1.442,0.263c0.66,0,1.191-0.139,1.594-0.415
			c0.403-0.277,0.604-0.663,0.604-1.158c0-0.232-0.051-0.43-0.153-0.59c-0.102-0.16-0.255-0.296-0.458-0.407
			s-0.457-0.211-0.757-0.299c-0.301-0.087-0.65-0.18-1.048-0.276c-0.427-0.097-0.798-0.194-1.114-0.291s-0.575-0.214-0.779-0.35
			c-0.204-0.136-0.356-0.301-0.458-0.495s-0.153-0.441-0.153-0.742c0-0.379,0.073-0.709,0.218-0.99
			c0.146-0.282,0.347-0.515,0.604-0.699c0.257-0.185,0.553-0.322,0.888-0.415c0.335-0.092,0.691-0.139,1.07-0.139
			c0.592,0,1.116,0.1,1.572,0.299c0.457,0.199,0.811,0.454,1.063,0.765l-0.408,0.393c-0.252-0.291-0.58-0.509-0.983-0.655
			c-0.403-0.146-0.832-0.218-1.289-0.218c-0.282,0-0.546,0.029-0.793,0.087c-0.248,0.059-0.464,0.15-0.648,0.277
			c-0.185,0.126-0.33,0.288-0.437,0.487s-0.16,0.435-0.16,0.706c0,0.224,0.037,0.403,0.109,0.539s0.189,0.252,0.35,0.35
			c0.16,0.097,0.366,0.182,0.619,0.255c0.252,0.072,0.553,0.152,0.903,0.24c0.476,0.116,0.898,0.228,1.267,0.335
			c0.369,0.106,0.677,0.237,0.925,0.393s0.437,0.34,0.568,0.554c0.131,0.214,0.197,0.485,0.197,0.815
			c0,0.68-0.265,1.221-0.794,1.623C159.662,149.388,158.956,149.589,158.073,149.589z"/>
		<path fill="#565656" d="M165.891,149.589c-0.534,0-1.029-0.104-1.485-0.313c-0.457-0.209-0.852-0.495-1.187-0.859
			s-0.597-0.784-0.786-1.26s-0.284-0.985-0.284-1.529c0-0.533,0.095-1.036,0.284-1.507s0.449-0.883,0.779-1.237
			s0.721-0.634,1.172-0.838c0.451-0.203,0.939-0.306,1.463-0.306c0.534,0,1.029,0.104,1.485,0.313
			c0.456,0.209,0.849,0.49,1.179,0.845s0.588,0.767,0.771,1.237c0.186,0.471,0.277,0.969,0.277,1.492c0,0.049,0,0.109,0,0.183
			c0,0.072-0.004,0.119-0.014,0.138h-6.641c0.029,0.438,0.131,0.843,0.306,1.217c0.175,0.373,0.396,0.696,0.663,0.968
			s0.575,0.485,0.925,0.641s0.723,0.233,1.121,0.233c0.262,0,0.519-0.037,0.772-0.109c0.252-0.073,0.488-0.173,0.706-0.299
			s0.413-0.278,0.583-0.458c0.169-0.18,0.303-0.377,0.4-0.59l0.641,0.175c-0.105,0.271-0.264,0.521-0.473,0.749
			c-0.209,0.229-0.451,0.425-0.728,0.59s-0.58,0.294-0.91,0.386C166.581,149.543,166.241,149.589,165.891,149.589z M168.861,145.366
			c-0.029-0.446-0.129-0.854-0.299-1.223c-0.169-0.369-0.388-0.688-0.654-0.954c-0.267-0.267-0.575-0.476-0.925-0.626
			s-0.723-0.226-1.121-0.226c-0.398,0-0.772,0.075-1.121,0.226c-0.35,0.15-0.658,0.359-0.925,0.626s-0.48,0.587-0.641,0.961
			s-0.255,0.779-0.284,1.216H168.861z"/>
		<path fill="#565656" d="M178.079,149.589c-0.534,0-1.027-0.104-1.479-0.313c-0.451-0.209-0.842-0.493-1.172-0.853
			c-0.33-0.358-0.588-0.776-0.771-1.252c-0.185-0.476-0.277-0.976-0.277-1.5c0-0.533,0.095-1.038,0.284-1.515
			c0.189-0.475,0.449-0.893,0.779-1.252c0.33-0.358,0.721-0.643,1.172-0.852s0.939-0.313,1.464-0.313
			c0.523,0,1.009,0.104,1.456,0.313c0.446,0.209,0.837,0.493,1.172,0.852c0.335,0.359,0.597,0.777,0.786,1.252
			c0.189,0.477,0.284,0.981,0.284,1.515c0,0.524-0.095,1.024-0.284,1.5s-0.449,0.894-0.779,1.252
			c-0.33,0.359-0.721,0.644-1.172,0.853C179.091,149.484,178.603,149.589,178.079,149.589z M175.108,145.701
			c0,0.446,0.077,0.866,0.232,1.26c0.155,0.393,0.366,0.735,0.634,1.026c0.267,0.291,0.58,0.521,0.939,0.691
			c0.358,0.17,0.742,0.255,1.15,0.255c0.407,0,0.791-0.085,1.15-0.255c0.358-0.17,0.674-0.405,0.946-0.706
			c0.271-0.301,0.485-0.647,0.641-1.041s0.232-0.817,0.232-1.274c0-0.446-0.077-0.866-0.232-1.259
			c-0.155-0.394-0.369-0.738-0.641-1.034c-0.272-0.296-0.585-0.531-0.939-0.706s-0.735-0.263-1.143-0.263
			c-0.408,0-0.792,0.088-1.15,0.263c-0.359,0.175-0.673,0.412-0.939,0.713c-0.268,0.302-0.48,0.653-0.641,1.056
			C175.188,144.83,175.108,145.255,175.108,145.701z"/>
		<path fill="#565656" d="M183.743,149.443v-6.975h-1.063v-0.597h1.063v-0.248c0-0.932,0.189-1.657,0.567-2.177
			c0.379-0.52,0.903-0.779,1.573-0.779c0.291,0,0.572,0.044,0.845,0.131c0.271,0.088,0.495,0.204,0.67,0.35l-0.263,0.524
			c-0.136-0.106-0.304-0.194-0.502-0.262c-0.199-0.068-0.405-0.103-0.619-0.103c-0.495,0-0.876,0.197-1.143,0.59
			c-0.268,0.394-0.401,0.964-0.401,1.711v0.263h2.155v0.597h-2.155v6.975H183.743z"/>
		<path fill="#565656" d="M198.508,139.774h-3.785v9.669h-0.743v-9.669h-3.786v-0.669h8.314V139.774z"/>
		<path fill="#565656" d="M206.079,149.443h-0.729v-4.223c0-1.873-0.626-2.811-1.878-2.811c-0.311,0-0.614,0.059-0.91,0.175
			s-0.573,0.282-0.83,0.495c-0.257,0.214-0.482,0.464-0.677,0.75s-0.34,0.595-0.437,0.925v4.688h-0.729v-10.63h0.729v4.863
			c0.311-0.592,0.739-1.063,1.288-1.412s1.138-0.524,1.77-0.524c0.417,0,0.776,0.078,1.077,0.233s0.551,0.379,0.75,0.67
			s0.345,0.643,0.437,1.056c0.093,0.412,0.139,0.876,0.139,1.391V149.443z"/>
		<path fill="#565656" d="M211.496,149.589c-0.534,0-1.029-0.104-1.485-0.313c-0.456-0.209-0.852-0.495-1.187-0.859
			s-0.597-0.784-0.786-1.26s-0.284-0.985-0.284-1.529c0-0.533,0.095-1.036,0.284-1.507s0.449-0.883,0.779-1.237
			s0.721-0.634,1.172-0.838c0.451-0.203,0.939-0.306,1.464-0.306c0.533,0,1.028,0.104,1.484,0.313c0.457,0.209,0.85,0.49,1.18,0.845
			s0.587,0.767,0.771,1.237s0.277,0.969,0.277,1.492c0,0.049,0,0.109,0,0.183c0,0.072-0.005,0.119-0.015,0.138h-6.64
			c0.028,0.438,0.131,0.843,0.306,1.217c0.175,0.373,0.396,0.696,0.662,0.968s0.575,0.485,0.925,0.641s0.723,0.233,1.121,0.233
			c0.262,0,0.52-0.037,0.771-0.109c0.253-0.073,0.488-0.173,0.706-0.299c0.219-0.126,0.413-0.278,0.583-0.458s0.303-0.377,0.4-0.59
			l0.641,0.175c-0.106,0.271-0.265,0.521-0.474,0.749c-0.208,0.229-0.451,0.425-0.728,0.59s-0.58,0.294-0.91,0.386
			C212.186,149.543,211.846,149.589,211.496,149.589z M214.467,145.366c-0.029-0.446-0.129-0.854-0.299-1.223
			c-0.17-0.369-0.388-0.688-0.655-0.954c-0.267-0.267-0.575-0.476-0.924-0.626c-0.35-0.15-0.724-0.226-1.122-0.226
			c-0.397,0-0.771,0.075-1.121,0.226s-0.657,0.359-0.925,0.626c-0.267,0.267-0.48,0.587-0.641,0.961s-0.255,0.779-0.283,1.216
			H214.467z"/>
		<path fill="#565656" d="M221.47,140.503v8.94h-0.742v-10.338h0.567l7.252,9.101v-9.101h0.742v10.338h-0.685L221.47,140.503z"/>
		<path fill="#565656" d="M234.881,149.589c-0.534,0-1.029-0.104-1.485-0.313c-0.456-0.209-0.852-0.495-1.187-0.859
			s-0.597-0.784-0.786-1.26s-0.284-0.985-0.284-1.529c0-0.533,0.095-1.036,0.284-1.507s0.449-0.883,0.779-1.237
			s0.721-0.634,1.172-0.838c0.451-0.203,0.939-0.306,1.464-0.306c0.533,0,1.028,0.104,1.484,0.313c0.457,0.209,0.85,0.49,1.18,0.845
			s0.587,0.767,0.771,1.237s0.277,0.969,0.277,1.492c0,0.049,0,0.109,0,0.183c0,0.072-0.005,0.119-0.015,0.138h-6.64
			c0.028,0.438,0.131,0.843,0.306,1.217c0.175,0.373,0.396,0.696,0.662,0.968s0.575,0.485,0.925,0.641s0.723,0.233,1.121,0.233
			c0.262,0,0.52-0.037,0.771-0.109c0.253-0.073,0.488-0.173,0.706-0.299c0.219-0.126,0.413-0.278,0.583-0.458s0.303-0.377,0.4-0.59
			l0.641,0.175c-0.106,0.271-0.265,0.521-0.474,0.749c-0.208,0.229-0.451,0.425-0.728,0.59s-0.58,0.294-0.91,0.386
			C235.57,149.543,235.23,149.589,234.881,149.589z M237.852,145.366c-0.029-0.446-0.129-0.854-0.299-1.223
			c-0.17-0.369-0.388-0.688-0.655-0.954c-0.267-0.267-0.575-0.476-0.924-0.626c-0.35-0.15-0.724-0.226-1.122-0.226
			c-0.397,0-0.771,0.075-1.121,0.226s-0.657,0.359-0.925,0.626c-0.267,0.267-0.48,0.587-0.641,0.961s-0.255,0.779-0.283,1.216
			H237.852z"/>
		<path fill="#565656" d="M249.544,141.872h0.729l-3.276,7.571h-0.612l-1.703-4.004l-1.704,4.004h-0.611l-3.276-7.571h0.714
			l2.897,6.771l1.587-3.728l-1.281-3.029h0.626l1.049,2.505l1.034-2.505h0.641l-1.281,3.029l1.587,3.728L249.544,141.872z"/>
		<path fill="#565656" d="M253.897,149.589c-0.582,0-1.141-0.097-1.674-0.291c-0.534-0.194-1-0.485-1.398-0.874l0.364-0.495
			c0.407,0.369,0.83,0.641,1.267,0.815s0.917,0.263,1.441,0.263c0.66,0,1.191-0.139,1.595-0.415
			c0.402-0.277,0.604-0.663,0.604-1.158c0-0.232-0.051-0.43-0.153-0.59c-0.102-0.16-0.255-0.296-0.458-0.407
			c-0.204-0.111-0.457-0.211-0.758-0.299c-0.301-0.087-0.65-0.18-1.048-0.276c-0.428-0.097-0.799-0.194-1.114-0.291
			s-0.575-0.214-0.779-0.35s-0.356-0.301-0.458-0.495c-0.103-0.194-0.153-0.441-0.153-0.742c0-0.379,0.073-0.709,0.219-0.99
			c0.146-0.282,0.347-0.515,0.604-0.699c0.258-0.185,0.554-0.322,0.889-0.415c0.335-0.092,0.691-0.139,1.07-0.139
			c0.592,0,1.116,0.1,1.572,0.299s0.811,0.454,1.063,0.765l-0.408,0.393c-0.252-0.291-0.58-0.509-0.982-0.655
			c-0.403-0.146-0.833-0.218-1.289-0.218c-0.281,0-0.546,0.029-0.793,0.087c-0.248,0.059-0.464,0.15-0.648,0.277
			c-0.185,0.126-0.33,0.288-0.437,0.487c-0.107,0.199-0.16,0.435-0.16,0.706c0,0.224,0.036,0.403,0.109,0.539
			c0.072,0.136,0.188,0.252,0.349,0.35c0.16,0.097,0.366,0.182,0.619,0.255c0.252,0.072,0.554,0.152,0.903,0.24
			c0.475,0.116,0.897,0.228,1.267,0.335c0.368,0.106,0.677,0.237,0.925,0.393c0.247,0.155,0.437,0.34,0.567,0.554
			s0.196,0.485,0.196,0.815c0,0.68-0.265,1.221-0.793,1.623C255.487,149.388,254.781,149.589,253.897,149.589z"/>
	</g>
</g>
</svg>
